<?xml version="1.0" standalone="no"?>
<!DOCTYPE svg PUBLIC "-//W3C//DTD SVG 20010904//EN"
 "http://www.w3.org/TR/2001/REC-SVG-20010904/DTD/svg10.dtd">
<svg version="1.0" xmlns="http://www.w3.org/2000/svg"
 width="942.000000pt" height="953.000000pt" viewBox="0 0 942.000000 953.000000"
 preserveAspectRatio="xMidYMid meet">

<g transform="translate(0.000000,953.000000) scale(0.100000,-0.100000)"
fill="#000000" stroke="none">
<path d="M3101 7414 c0 -11 3 -14 6 -6 3 7 2 16 -1 19 -3 4 -6 -2 -5 -13z"/>
<path d="M3071 7310 l-24 -80 -42 0 -43 0 5 -42 c4 -31 -34 -228 -131 -693
-167 -796 -176 -835 -189 -860 -15 -30 -39 -44 -71 -45 -29 0 -309 56 -330 66
-6 3 -3 -1 7 -9 28 -23 230 -68 336 -74 l94 -6 -6 -91 c-4 -50 -9 -113 -11
-141 -2 -27 -2 -39 1 -25 2 14 20 97 38 185 19 88 100 473 180 855 80 382 162
771 181 863 20 93 34 170 32 173 -3 2 -15 -32 -27 -76z"/>
<path d="M3777 7225 c-10 -48 -16 -89 -13 -92 6 -7 38 143 34 163 -1 9 -11
-22 -21 -71z"/>
<path d="M2482 7163 c-11 -37 -32 -133 -46 -211 -14 -79 -29 -148 -32 -153 -3
-5 -26 -9 -52 -9 -39 0 -43 -2 -29 -12 17 -14 18 -8 -79 -455 -18 -83 -18 -83
-127 -61 -83 17 -92 34 -91 163 0 60 8 125 18 164 18 66 16 97 -3 39 -15 -49
-31 -160 -32 -226 -1 -64 10 -99 37 -124 27 -24 132 -58 177 -58 l39 0 -5 -67
c-3 -38 -15 -119 -26 -182 -12 -63 -21 -121 -19 -129 2 -8 54 230 117 529 62
299 129 614 147 699 18 85 31 156 30 158 -2 2 -13 -28 -24 -65z"/>
<path d="M3651 6623 c-57 -274 -109 -525 -117 -558 -8 -33 -52 -244 -99 -468
-48 -225 -89 -415 -92 -423 -3 -8 -3 -14 1 -14 11 0 58 172 91 340 32 160 41
199 75 328 l11 43 57 -3 c56 -3 57 -3 63 -38 9 -57 48 -152 78 -190 15 -19 38
-52 51 -74 13 -21 45 -63 72 -94 26 -30 48 -59 48 -64 0 -4 16 -43 37 -85 27
-58 37 -95 41 -144 l4 -67 37 -6 c20 -3 79 -6 131 -6 78 0 114 -6 190 -30 52
-16 96 -28 98 -26 2 2 -29 25 -67 51 -80 52 -151 80 -232 91 -98 12 -139 48
-184 159 -26 64 -69 142 -84 155 -22 18 -113 134 -140 180 -89 146 -82 212 36
319 103 95 137 144 194 280 83 197 122 227 264 202 39 -7 161 -16 273 -21 180
-8 207 -11 241 -31 38 -21 61 -54 61 -87 0 -19 -35 -88 -53 -107 -37 -36 -122
-92 -187 -123 -68 -32 -84 -35 -165 -36 -79 -1 -98 3 -150 27 -32 15 -74 39
-92 53 -39 29 -42 17 -10 -31 32 -46 92 -93 138 -107 49 -14 41 -25 -44 -63
-52 -24 -80 -29 -177 -34 l-115 -6 35 -22 c73 -47 228 -45 334 5 l66 31 0 -53
c0 -29 -8 -85 -19 -124 -10 -40 -14 -72 -9 -72 27 0 68 34 100 82 14 20 15 20
48 3 43 -22 134 -30 184 -17 37 11 41 9 73 -18 18 -17 54 -35 79 -41 l46 -12
-5 -49 c-13 -107 -96 -254 -231 -408 -63 -72 -81 -100 -53 -84 145 85 257 211
320 359 14 33 30 59 34 58 4 0 103 -22 218 -47 116 -25 251 -53 300 -62 50 -9
93 -20 98 -23 4 -4 -27 -72 -68 -152 -83 -161 -120 -203 -220 -250 -94 -44
-253 -78 -368 -79 -27 0 -46 -4 -43 -9 10 -16 193 -44 261 -39 62 4 68 7 113
50 26 25 65 57 86 71 43 29 105 99 138 158 21 38 23 39 75 39 l53 0 0 -57 c-1
-32 -7 -69 -15 -83 -8 -14 -14 -36 -15 -50 0 -14 -6 -50 -14 -80 -8 -30 -17
-84 -20 -120 -8 -85 19 34 158 695 193 919 207 988 202 992 -3 3 -13 -32 -22
-77 l-18 -82 -62 4 -62 3 15 -28 c8 -16 12 -31 10 -33 -3 -3 -46 3 -97 13
l-93 17 -18 41 c-10 22 -19 56 -19 75 -1 19 -5 44 -9 55 -7 16 -11 9 -20 -33
-6 -29 -11 -70 -11 -90 0 -59 -27 -150 -69 -226 -21 -39 -50 -103 -65 -142
-26 -69 -65 -118 -113 -143 -28 -14 -88 -14 -115 0 -18 10 -20 17 -14 72 17
158 39 266 86 432 59 209 73 248 106 293 l25 32 -39 0 c-36 0 -40 3 -47 33 -8
40 -10 37 -58 -128 -114 -390 -137 -484 -137 -555 -1 -82 -18 -189 -36 -219
-42 -70 -143 -95 -188 -46 -32 35 -34 53 -20 185 7 63 13 140 14 169 0 42 6
64 26 92 36 52 46 106 32 166 -6 26 -11 71 -11 98 -1 48 28 320 39 378 5 26 4
27 -32 27 -29 0 -46 8 -73 33 -20 17 -28 23 -19 12 40 -49 43 -103 16 -333
-11 -93 -11 -93 -36 -87 -39 10 -181 25 -233 25 l-46 0 -18 143 c-9 78 -16
164 -14 190 3 37 2 44 -7 32 -16 -21 -97 -20 -132 2 l-27 18 29 -35 c16 -19
35 -49 42 -66 15 -36 48 -263 39 -272 -3 -3 -40 1 -83 9 -42 8 -115 14 -162
14 l-85 1 -30 46 c-16 26 -44 73 -62 105 -30 56 -32 57 -41 33 -6 -16 -5 -43
3 -78 l13 -54 -29 4 c-23 4 -29 1 -29 -13 0 -15 -10 -19 -62 -21 l-63 -3 118
-24 c94 -19 117 -27 117 -41 0 -28 -48 -159 -89 -245 -50 -103 -103 -173 -187
-249 -37 -33 -80 -81 -96 -105 -15 -25 -28 -40 -28 -35 0 9 81 408 124 612 20
90 20 92 1 92 -25 0 -19 119 14 270 28 132 47 250 40 250 -2 0 -51 -224 -108
-497z m2009 -394 l88 -20 -13 -57 c-7 -31 -41 -190 -75 -352 -35 -162 -66
-299 -71 -304 -6 -7 -548 96 -632 120 -14 5 -16 12 -11 42 4 20 12 39 18 41 6
2 29 23 50 47 l39 43 76 -6 c65 -5 83 -3 117 15 72 37 124 113 219 325 66 146
54 140 195 106z m-935 -141 c-3 -13 -9 -68 -14 -122 -13 -126 -25 -141 -111
-141 -44 0 -66 5 -86 21 -39 29 -62 63 -69 106 l-7 36 54 16 c29 9 91 36 138
61 47 24 88 44 93 44 4 1 5 -9 2 -21z"/>
<path d="M5906 6676 c-10 -41 -16 -82 -14 -92 2 -11 12 21 21 70 22 109 17
124 -7 22z"/>
<path d="M6597 6537 c-21 -100 -121 -577 -223 -1061 -102 -483 -183 -881 -180
-883 5 -5 18 40 31 106 4 19 14 49 21 67 14 33 17 34 67 34 29 0 57 -4 63 -10
12 -12 271 -60 327 -60 34 0 49 6 69 28 34 35 43 59 68 184 29 146 50 239 63
272 l11 29 113 -7 c125 -7 142 4 36 23 -38 7 -74 16 -81 20 -11 6 -3 58 37
247 28 131 53 249 56 262 4 15 1 22 -10 22 -25 0 -18 105 19 298 18 94 30 172
26 172 -3 0 -75 -330 -159 -732 -85 -403 -161 -746 -170 -763 -29 -51 -54 -53
-234 -16 -222 45 -233 58 -193 227 8 38 45 211 81 384 113 542 195 933 206
982 6 26 20 59 31 73 l19 25 -35 0 -36 0 0 56 c0 30 5 87 11 125 20 128 4 81
-34 -104z"/>
<path d="M5561 6593 c7 -12 15 -20 18 -17 3 2 -3 12 -13 22 -17 16 -18 16 -5
-5z"/>
<path d="M5882 6540 c0 -14 2 -19 5 -12 2 6 2 18 0 25 -3 6 -5 1 -5 -13z"/>
<path d="M5635 6476 c10 -14 19 -26 22 -26 7 0 -17 39 -28 46 -6 3 -3 -5 6
-20z"/>
<path d="M2202 5800 c0 -14 2 -19 5 -12 2 6 2 18 0 25 -3 6 -5 1 -5 -13z"/>
<path d="M7291 5584 c-2 -48 -38 -181 -66 -242 -19 -41 -21 -51 -8 -41 9 8 24
32 34 54 21 48 52 207 46 238 -3 16 -5 14 -6 -9z"/>
<path d="M2670 5267 c0 -4 7 -21 15 -37 20 -38 69 -62 175 -85 47 -9 131 -28
187 -41 57 -13 131 -24 166 -24 60 0 65 2 98 37 l34 37 -38 -32 c-47 -40 -75
-41 -229 -8 -62 14 -160 34 -217 46 -130 27 -148 35 -171 79 -11 20 -19 32
-20 28z"/>
<path d="M3952 5060 c0 -14 2 -19 5 -12 2 6 2 18 0 25 -3 6 -5 1 -5 -13z"/>
<path d="M3921 4927 c-13 -56 -30 -127 -38 -157 -26 -94 -42 -165 -53 -236 -5
-38 -17 -96 -24 -129 -21 -87 -44 -201 -56 -275 -6 -36 -24 -119 -41 -185 -16
-66 -36 -156 -44 -200 -8 -44 -23 -118 -34 -165 -10 -47 -22 -119 -25 -160 -5
-69 -4 -71 5 -25 5 28 34 165 64 305 134 636 276 1323 272 1326 -2 2 -14 -42
-26 -99z"/>
<path d="M5131 4674 c-7 -37 -10 -68 -7 -71 4 -5 10 22 21 95 11 68 -2 48 -14
-24z"/>
<path d="M5501 4714 c0 -11 3 -14 6 -6 3 7 2 16 -1 19 -3 4 -6 -2 -5 -13z"/>
<path d="M5510 4668 c0 -20 47 -78 63 -78 6 0 1 7 -12 16 -13 9 -29 31 -37 48
-7 17 -13 23 -14 14z"/>
<path d="M5101 4519 c-7 -38 -11 -72 -9 -75 3 -2 10 28 17 67 7 38 11 72 9 75
-3 2 -10 -28 -17 -67z"/>
<path d="M5650 4569 c29 -12 204 -54 305 -74 100 -20 139 -19 166 5 l24 20
-36 -16 c-33 -15 -42 -15 -110 0 -41 8 -138 29 -217 46 -153 32 -172 35 -132
19z"/>
<path d="M5081 4414 c0 -11 3 -14 6 -6 3 7 2 16 -1 19 -3 4 -6 -2 -5 -13z"/>
<path d="M5071 4364 c0 -11 3 -14 6 -6 3 7 2 16 -1 19 -3 4 -6 -2 -5 -13z"/>
<path d="M5061 4314 c0 -11 3 -14 6 -6 3 7 2 16 -1 19 -3 4 -6 -2 -5 -13z"/>
<path d="M5052 4260 c0 -14 2 -19 5 -12 2 6 2 18 0 25 -3 6 -5 1 -5 -13z"/>
<path d="M5031 4164 c-6 -37 -10 -68 -8 -71 3 -2 10 26 17 62 7 36 10 68 8 70
-3 3 -10 -25 -17 -61z"/>
<path d="M4104 4214 c-45 -10 -65 -49 -95 -176 -47 -202 -56 -243 -109 -483
-27 -126 -55 -242 -60 -256 -24 -56 -126 -80 -179 -41 -14 10 -34 34 -43 53
-14 26 -18 29 -18 13 0 -37 21 -82 45 -98 28 -19 98 -21 144 -5 43 15 74 73
101 189 49 210 62 266 70 285 5 11 12 40 15 65 10 63 51 234 63 257 5 10 12
38 16 63 9 61 20 70 81 70 80 0 90 -17 88 -146 -1 -56 -6 -112 -12 -122 -6
-11 -15 -53 -21 -93 -6 -41 -15 -83 -19 -94 -10 -23 -28 -103 -42 -190 -6 -33
-19 -98 -30 -145 -10 -47 -28 -137 -39 -200 -12 -63 -30 -146 -40 -185 -38
-144 -42 -161 -50 -220 -5 -33 -18 -94 -28 -135 -11 -41 -26 -106 -32 -145
-15 -87 -34 -180 -55 -265 -49 -206 -69 -357 -52 -407 15 -44 81 -84 136 -82
l36 2 -40 6 c-63 11 -98 33 -118 74 l-19 38 77 362 c42 199 97 454 121 567 25
113 56 257 70 320 14 63 31 144 39 180 14 64 69 321 140 654 23 109 34 182 30
203 -11 59 -97 103 -171 87z"/>
<path d="M5002 4010 c0 -14 2 -19 5 -12 2 6 2 18 0 25 -3 6 -5 1 -5 -13z"/>
<path d="M4991 3954 c0 -11 3 -14 6 -6 3 7 2 16 -1 19 -3 4 -6 -2 -5 -13z"/>
<path d="M4971 3849 c-6 -40 -10 -74 -7 -76 2 -2 9 28 16 67 7 39 10 73 8 76
-3 2 -10 -28 -17 -67z"/>
<path d="M4946 3719 c-8 -42 0 -50 9 -9 4 17 5 34 2 36 -2 3 -7 -10 -11 -27z"/>
<path d="M4896 3459 c-9 -50 -15 -93 -13 -96 3 -2 12 37 22 87 10 50 15 93 13
96 -3 2 -13 -37 -22 -87z"/>
<path d="M4871 3324 c0 -11 3 -14 6 -6 3 7 2 16 -1 19 -3 4 -6 -2 -5 -13z"/>
<path d="M4861 3274 c0 -11 3 -14 6 -6 3 7 2 16 -1 19 -3 4 -6 -2 -5 -13z"/>
<path d="M4851 3224 c0 -11 3 -14 6 -6 3 7 2 16 -1 19 -3 4 -6 -2 -5 -13z"/>
<path d="M4385 3178 c-52 -30 -51 -28 -114 -333 -28 -132 -70 -337 -95 -455
-25 -118 -61 -291 -81 -385 -19 -93 -38 -179 -40 -190 -3 -11 4 -2 14 19 10
21 29 93 41 160 12 67 30 153 40 191 10 39 23 97 30 130 21 100 51 237 65 290
7 28 21 93 30 145 28 160 38 204 51 225 6 11 15 36 18 55 11 65 29 80 96 80
53 0 61 -3 76 -25 14 -22 16 -41 10 -123 -4 -53 -13 -122 -20 -152 -8 -30 -17
-82 -21 -115 -3 -33 -13 -87 -20 -120 -19 -85 -30 -192 -18 -180 11 11 136
629 136 670 0 46 -25 85 -64 106 -42 21 -103 25 -134 7z"/>
<path d="M4832 3120 c0 -14 2 -19 5 -12 2 6 2 18 0 25 -3 6 -5 1 -5 -13z"/>
<path d="M4822 3070 c0 -14 2 -19 5 -12 2 6 2 18 0 25 -3 6 -5 1 -5 -13z"/>
<path d="M4812 3020 c0 -14 2 -19 5 -12 2 6 2 18 0 25 -3 6 -5 1 -5 -13z"/>
<path d="M4801 2970 c-1 -14 -4 -36 -6 -50 l-6 -25 11 25 c6 13 9 36 7 50 l-4
25 -2 -25z"/>
<path d="M3491 2914 c0 -11 3 -14 6 -6 3 7 2 16 -1 19 -3 4 -6 -2 -5 -13z"/>
<path d="M3465 2795 c-10 -53 -16 -98 -13 -100 2 -3 12 38 22 91 10 52 16 97
13 100 -3 3 -13 -38 -22 -91z"/>
<path d="M4781 2864 c0 -11 3 -14 6 -6 3 7 2 16 -1 19 -3 4 -6 -2 -5 -13z"/>
<path d="M3726 2791 c-4 -24 -5 -46 -2 -48 7 -7 19 63 14 79 -3 7 -8 -7 -12
-31z"/>
<path d="M4737 2625 c-16 -81 -26 -149 -24 -151 6 -7 60 272 55 286 -2 7 -16
-54 -31 -135z"/>
<path d="M3711 2704 c0 -11 3 -14 6 -6 3 7 2 16 -1 19 -3 4 -6 -2 -5 -13z"/>
<path d="M3430 2615 c-7 -36 -10 -68 -8 -70 3 -3 10 25 17 61 6 37 10 68 8 71
-3 2 -10 -26 -17 -62z"/>
<path d="M3412 2510 c0 -14 2 -19 5 -12 2 6 2 18 0 25 -3 6 -5 1 -5 -13z"/>
<path d="M3672 2500 c0 -14 2 -19 5 -12 2 6 2 18 0 25 -3 6 -5 1 -5 -13z"/>
<path d="M3401 2444 c0 -23 5 -48 15 -60 8 -10 12 -12 8 -4 -5 8 -11 35 -15
60 l-6 45 -2 -41z"/>
<path d="M3661 2454 c0 -11 3 -14 6 -6 3 7 2 16 -1 19 -3 4 -6 -2 -5 -13z"/>
<path d="M4696 2421 c-4 -24 -5 -46 -2 -48 7 -7 19 63 14 79 -3 7 -8 -7 -12
-31z"/>
<path d="M3619 2353 c-22 -25 -76 -44 -107 -37 -15 4 -40 16 -57 28 -26 18
-28 18 -15 2 42 -53 128 -55 176 -5 15 16 25 29 22 29 -3 0 -12 -7 -19 -17z"/>
<path d="M4667 2322 l-18 -37 20 25 c12 14 21 31 21 38 0 19 -4 15 -23 -26z"/>
<path d="M4495 2280 c3 -5 11 -10 16 -10 6 0 7 5 4 10 -3 6 -11 10 -16 10 -6
0 -7 -4 -4 -10z"/>
<path d="M4625 2280 c-3 -5 -17 -10 -31 -10 -14 0 -23 -4 -20 -9 8 -12 42 -3
57 15 6 8 9 14 6 14 -3 0 -9 -4 -12 -10z"/>
<path d="M4538 2263 c7 -3 16 -2 19 1 4 3 -2 6 -13 5 -11 0 -14 -3 -6 -6z"/>
<path d="M4033 1777 c-4 -7 -19 -21 -33 -30 -13 -9 -21 -17 -17 -17 14 0 55
31 61 46 7 18 0 18 -11 1z"/>
</g>
</svg>
